<svg width="454" height="524" viewBox="0 0 454 524" fill="none" xmlns="http://www.w3.org/2000/svg">
	<path d="M5.5 134V390L227 518L448.5 390V134L227 6L5.5 134Z" fill="#194F85" stroke="white" stroke-width="10"/>
	<path d="M75.335 354V331.728L146.503 264.144C152.476 258.512 156.914 253.563 159.815 249.296C162.716 245.029 164.594 241.104 165.447 237.52C166.471 233.765 166.983 230.267 166.983 227.024C166.983 218.832 164.167 212.517 158.535 208.08C152.903 203.472 144.626 201.168 133.703 201.168C124.999 201.168 117.063 202.704 109.895 205.776C102.898 208.848 96.839 213.541 91.719 219.856L68.423 201.936C75.4203 192.549 84.807 185.296 96.583 180.176C108.53 174.885 121.842 172.24 136.519 172.24C149.49 172.24 160.754 174.373 170.311 178.64C180.039 182.736 187.463 188.624 192.583 196.304C197.874 203.984 200.519 213.115 200.519 223.696C200.519 229.499 199.751 235.301 198.215 241.104C196.679 246.736 193.778 252.709 189.511 259.024C185.244 265.339 179.015 272.421 170.823 280.272L109.639 338.384L102.727 325.84H207.431V354H75.335ZM301.391 356.56C287.226 356.56 274.426 352.976 262.991 345.808C251.727 338.64 242.852 328.229 236.367 314.576C229.882 300.752 226.639 284.027 226.639 264.4C226.639 244.773 229.882 228.133 236.367 214.48C242.852 200.656 251.727 190.16 262.991 182.992C274.426 175.824 287.226 172.24 301.391 172.24C315.727 172.24 328.527 175.824 339.791 182.992C351.055 190.16 359.93 200.656 366.415 214.48C373.071 228.133 376.399 244.773 376.399 264.4C376.399 284.027 373.071 300.752 366.415 314.576C359.93 328.229 351.055 338.64 339.791 345.808C328.527 352.976 315.727 356.56 301.391 356.56ZM301.391 327.632C309.754 327.632 317.007 325.413 323.151 320.976C329.295 316.368 334.074 309.371 337.487 299.984C341.071 290.597 342.863 278.736 342.863 264.4C342.863 249.893 341.071 238.032 337.487 228.816C334.074 219.429 329.295 212.517 323.151 208.08C317.007 203.472 309.754 201.168 301.391 201.168C293.37 201.168 286.202 203.472 279.887 208.08C273.743 212.517 268.879 219.429 265.295 228.816C261.882 238.032 260.175 249.893 260.175 264.4C260.175 278.736 261.882 290.597 265.295 299.984C268.879 309.371 273.743 316.368 279.887 320.976C286.202 325.413 293.37 327.632 301.391 327.632Z" fill="white"/>
</svg>